{"accessors":[{"bufferView":0,"componentType":5125,"count":447684,"type":"SCALAR"},{"bufferView":1,"componentType":5126,"count":447684,"max":[1.53356027603149,0.483547359704971,1.17549435082229e-38],"min":[-2.87672734260559,-1.15740883350372,-7.88506078720093],"type":"VEC3"},{"bufferView":2,"componentType":5126,"count":447684,"type":"VEC2"}],"asset":{"generator":"ply_to_gltf","version":"2.0"},"bufferViews":[{"buffer":0,"byteLength":1790736,"target":34963},{"buffer":0,"byteLength":5372208,"byteOffset":1790736,"target":34962},{"buffer":0,"byteLength":3581472,"byteOffset":7162944,"target":34962}],"buffers":[{"byteLength":10744416,"uri":"map_4edaf618-b6a2-4f19-90f6-0e27c3487832_densified_mesh_textured_lod0.bin"}],"images":[{"uri":"map_4edaf618-b6a2-4f19-90f6-0e27c3487832_densified_mesh_textured_4096.jpg"}],"materials":[{"pbrMetallicRoughness":{"baseColorTexture":{"index":0}}}],"meshes":[{"primitives":[{"attributes":{"POSITION":1,"TEXCOORD_0":2},"indices":0,"material":0,"mode":4}]}],"nodes":[{"mesh":0}],"samplers":[{"magFilter":9728,"minFilter":9728,"wrapR":10497,"wrapS":33071,"wrapT":33071}],"scene":0,"scenes":[{"nodes":[0]}],"textures":[{"sampler":0,"source":0}]}
